<?xml version="1.0" encoding="UTF-8"?>
<!DOCTYPE svg PUBLIC "-//W3C//DTD SVG 1.1//EN" "http://www.w3.org/Graphics/SVG/1.1/DTD/svg11.dtd">
<!-- Creator: CorelDRAW -->
<svg xmlns="http://www.w3.org/2000/svg" xml:space="preserve" width="706px" height="118px" version="1.1" style="shape-rendering:geometricPrecision; text-rendering:geometricPrecision; image-rendering:optimizeQuality; fill-rule:evenodd; clip-rule:evenodd"
viewBox="0 0 28033.43 4691.65"
 xmlns:xlink="http://www.w3.org/1999/xlink"
 xmlns:xodm="http://www.corel.com/coreldraw/odm/2003">
 <defs>
  <style type="text/css">
   <![CDATA[
    .fil1 {fill:#1F70D9}
    .fil2 {fill:black;fill-rule:nonzero}
    .fil0 {fill:url(#id0)}
   ]]>
  </style>
  <linearGradient id="id0" gradientUnits="userSpaceOnUse" x1="3067.03" y1="1289.74" x2="388.38" y2="4317.82">
   <stop offset="0" style="stop-opacity:1; stop-color:#1F70D9"/>
   <stop offset="1" style="stop-opacity:1; stop-color:#2436AA"/>
  </linearGradient>
 </defs>
 <g id="Layer_x0020_1">
  <metadata id="CorelCorpID_0Corel-Layer"/>
  <g id="_3175626022496">
   <g>
    <polygon class="fil0" points="3731.69,2168.25 2906.76,0 1784.85,0 0,4691.65 "/>
    <path class="fil1" d="M3826.32 2446.98l-1812.29 1118.96c-93.55,783.69 231.58,1032.44 892.73,1125.71l1784.89 0 -865.33 -2244.67z"/>
   </g>
   <path class="fil2" d="M6338.89 1873.33c119.17,-182.74 268.13,-326.73 446.88,-432.01 178.75,-105.23 377.35,-157.87 595.84,-157.87l0 1078.47 -280.04 0c-254.24,0 -444.91,54.61 -572.01,163.83 -127.1,109.27 -190.67,300.92 -190.67,575.01l0 1543.23 -1018.88 0 0 -3324.79 1018.88 0 0 554.13zm3384.37 1906.69l0 863.97 -518.38 0c-369.42,0 -657.39,-90.37 -863.96,-271.13 -206.58,-180.73 -309.84,-475.64 -309.84,-884.8l0 -1322.77 -405.17 0 0 -846.09 405.17 0 0 -810.34 1018.88 0 0 810.34 667.35 0 0 846.09 -667.35 0 0 1334.68c0,99.33 23.84,170.83 71.51,214.51 47.66,43.68 127.09,65.54 238.33,65.54l363.46 0zm1584.94 -1990.11c95.33,-154.92 232.38,-280.04 411.13,-375.38 178.75,-95.33 383.31,-143 613.71,-143 274.09,0 522.37,69.53 744.8,208.55 222.43,139.01 398.23,337.65 527.34,595.84 129.07,258.18 193.63,558.11 193.63,899.71 0,341.6 -64.56,642.53 -193.63,902.68 -129.11,260.2 -304.91,460.81 -527.34,601.8 -222.43,141.03 -470.71,211.54 -744.8,211.54 -234.35,0 -438.95,-46.68 -613.71,-140.04 -174.77,-93.32 -311.81,-217.46 -411.13,-372.38l0 464.76 -1018.89 0 0 -4409.22 1018.89 0 0 1555.14zm1453.85 1185.72c0,-254.24 -70.52,-453.82 -211.5,-598.84 -141.03,-144.97 -314.81,-217.46 -521.39,-217.46 -202.58,0 -374.39,73.47 -515.37,220.46 -141.03,146.99 -211.55,347.56 -211.55,601.8 0,254.24 70.52,454.81 211.55,601.8 140.98,146.99 312.79,220.46 515.37,220.46 202.59,0 375.38,-74.5 518.39,-223.46 143,-148.96 214.5,-350.52 214.5,-604.76zm3086.45 1716.02c-325.74,0 -618.69,-69.53 -878.84,-208.54 -260.2,-139.01 -464.76,-337.66 -613.72,-595.84 -148.96,-258.18 -223.46,-560.09 -223.46,-905.68 0,-341.6 75.49,-642.52 226.42,-902.72 150.93,-260.15 357.5,-459.78 619.67,-598.79 262.17,-139.02 556.1,-208.55 881.85,-208.55 325.74,0 619.67,69.53 881.84,208.55 262.17,139.01 468.74,338.64 619.67,598.79 150.93,260.2 226.42,561.12 226.42,902.72 0,341.6 -76.47,642.52 -229.37,902.68 -152.95,260.2 -361.5,459.83 -625.64,598.84 -264.18,139.01 -559.1,208.54 -884.84,208.54zm0 -881.84c194.66,0 360.51,-71.5 497.55,-214.5 137.04,-143 205.54,-347.56 205.54,-613.72 0,-266.15 -66.53,-470.71 -199.58,-613.71 -133.11,-143 -296.94,-214.5 -491.59,-214.5 -198.6,0 -363.47,70.51 -494.55,211.49 -131.09,141.04 -196.63,346.62 -196.63,616.72 0,266.16 64.56,470.72 193.67,613.72 129.07,143 290.93,214.5 485.59,214.5zm2079.48 -834.18c0,-341.6 64.56,-641.53 193.67,-899.71 129.07,-258.19 304.87,-456.83 527.3,-595.84 222.43,-139.02 470.71,-208.55 744.8,-208.55 234.34,0 439.93,47.67 616.71,143 176.74,95.34 312.8,220.46 408.13,375.38l0 -470.71 1018.89 0 0 3324.79 -1018.89 0 0 -470.72c-99.32,154.92 -237.35,280.05 -414.08,375.38 -176.79,95.34 -382.37,143 -616.72,143 -270.1,0 -516.41,-70.51 -738.84,-211.54 -222.43,-140.99 -398.23,-341.6 -527.3,-601.8 -129.11,-260.15 -193.67,-561.08 -193.67,-902.68zm2490.61 5.96c0,-254.24 -70.51,-454.81 -211.5,-601.8 -141.03,-146.99 -312.84,-220.46 -515.42,-220.46 -202.59,0 -374.4,72.49 -515.38,217.46 -141.03,145.02 -211.55,344.6 -211.55,598.84 0,254.24 70.52,455.8 211.55,604.76 140.98,148.96 312.79,223.46 515.38,223.46 202.58,0 374.39,-73.47 515.42,-220.46 140.99,-146.99 211.5,-347.56 211.5,-601.8zm2776.62 -1108.26c119.16,-182.74 268.12,-326.73 446.88,-432.01 178.75,-105.23 377.35,-157.87 595.84,-157.87l0 1078.47 -280.05 0c-254.24,0 -444.91,54.61 -572.01,163.83 -127.09,109.27 -190.66,300.92 -190.66,575.01l0 1543.23 -1018.89 0 0 -3324.79 1018.89 0 0 554.13zm1328.72 1102.3c0,-341.6 64.56,-641.53 193.67,-899.71 129.07,-258.19 304.86,-456.83 527.3,-595.84 222.43,-139.02 470.71,-208.55 744.8,-208.55 218.49,0 418.07,45.7 598.84,137.05 180.72,91.34 322.74,214.5 426,369.42l0 -1543.23 1018.89 0 0 4409.22 -1018.89 0 0 -476.68c-95.33,158.91 -231.39,286.01 -408.13,381.34 -176.78,95.34 -382.37,143 -616.71,143 -274.09,0 -522.37,-70.51 -744.8,-211.54 -222.44,-140.99 -398.23,-341.6 -527.3,-601.8 -129.11,-260.15 -193.67,-561.08 -193.67,-902.68zm2490.61 5.96c0,-254.24 -70.52,-454.81 -211.5,-601.8 -141.03,-146.99 -312.84,-220.46 -515.42,-220.46 -202.59,0 -374.4,72.49 -515.38,217.46 -141.03,145.02 -211.55,344.6 -211.55,598.84 0,254.24 70.52,455.8 211.55,604.76 140.98,148.96 312.79,223.46 515.38,223.46 202.58,0 374.39,-73.47 515.42,-220.46 140.98,-146.99 211.5,-347.56 211.5,-601.8z"/>
  </g>
 </g>
</svg>
